<svg xmlns="http://www.w3.org/2000/svg" width="262" height="213" viewBox="0 0 262 213" version="1.1">
	<path d="M 117.223 6.557 C 112.844 9.624, 114.886 18, 120.012 18 C 125.536 18, 127.680 10.823, 123.427 6.570 C 121.451 4.594, 120.029 4.591, 117.223 6.557 M 129.571 6.571 C 127.371 8.771, 127.572 14.302, 129.928 16.435 C 131.991 18.302, 134.987 17.925, 136.958 15.550 C 138.581 13.595, 136.563 12.631, 134.086 14.178 C 132.989 14.864, 131.901 15.216, 131.670 14.962 C 130.354 13.519, 130.169 10.151, 131.319 8.579 C 132.470 7.004, 132.930 6.940, 134.778 8.093 C 137.518 9.805, 139.123 8.294, 136.557 6.418 C 134.024 4.566, 131.522 4.621, 129.571 6.571 M 140.444 7.750 C 142.053 14.286, 142.193 16, 141.113 16 C 140.501 16, 140 16.450, 140 17 C 140 17.550, 140.628 18, 141.396 18 C 142.839 18, 149 9.220, 149 7.162 C 149 5.097, 147.102 5.927, 145.698 8.607 L 144.332 11.215 143.044 8.107 C 141.439 4.231, 139.512 3.966, 140.444 7.750 M 106.021 7.890 C 103.717 8.531, 103.538 9.037, 103.487 15.040 C 103.456 18.593, 103.608 22.063, 103.823 22.750 C 104.355 24.452, 106 24.337, 106 22.598 C 106 21.827, 107.315 20.737, 108.923 20.177 C 111.302 19.347, 111.960 19.453, 112.456 20.746 C 112.819 21.691, 113.418 21.963, 113.936 21.417 C 115.025 20.270, 110.914 6.962, 109.513 7.100 C 108.956 7.155, 107.384 7.510, 106.021 7.890 M 151.072 10.741 C 149.567 16.340, 149.388 18.838, 150.467 19.187 C 150.998 19.359, 152.037 17.361, 152.776 14.746 C 153.995 10.428, 154.343 10.048, 156.559 10.604 C 157.986 10.962, 159 10.781, 159 10.167 C 159 8.891, 158.297 8.467, 154.791 7.629 C 152.317 7.039, 151.994 7.309, 151.072 10.741 M 117.563 9.801 C 116.329 13.689, 119.708 17.261, 122.004 14.496 C 122.636 13.734, 123.006 12.073, 122.827 10.805 C 122.402 7.812, 118.435 7.055, 117.563 9.801 M 106.667 10.667 C 105.592 11.742, 105.902 16.821, 107.087 17.554 C 108.951 18.706, 110.237 16.354, 109.522 13.099 C 108.855 10.063, 107.999 9.334, 106.667 10.667 M 160.585 12.906 C 157.934 15.835, 158.831 21.073, 162.308 22.969 C 165.001 24.437, 165.217 24.385, 167.558 21.694 C 170.460 18.360, 170.692 14.936, 168.171 12.655 C 165.746 10.460, 162.708 10.561, 160.585 12.906 M 163.184 13.886 C 161.291 15.056, 161.351 19.121, 163.278 20.359 C 164.674 21.254, 165.263 21.177, 166.013 20 C 168.280 16.445, 166.226 12.006, 163.184 13.886 M 86.571 15.571 C 82.921 19.222, 85.883 26, 91.129 26 C 94.304 26, 96 24.267, 96 21.023 C 96 15.232, 90.241 11.902, 86.571 15.571 M 171.948 20.110 L 169.555 25.221 171.888 27.110 C 175.830 30.302, 178.961 29.324, 180.242 24.500 C 180.534 23.400, 181.077 21.766, 181.448 20.869 C 181.931 19.702, 181.148 18.636, 178.693 17.119 C 176.807 15.954, 175.056 15, 174.803 15 C 174.549 15, 173.265 17.300, 171.948 20.110 M 88.186 17.689 C 87.012 19.928, 88.405 24, 90.345 24 C 92.896 24, 94.010 21.651, 92.697 19.040 C 91.143 15.948, 89.376 15.419, 88.186 17.689 M 99.750 16.787 C 98.787 16.985, 98 17.789, 98 18.573 C 98 20.196, 98.885 20.359, 100.872 19.100 C 102.713 17.934, 101.939 16.338, 99.750 16.787 M 78 19.482 C 78 19.839, 78.441 20.955, 78.979 21.961 C 79.693 23.295, 79.549 24.129, 78.448 25.043 C 77.209 26.072, 76.689 25.956, 75.551 24.400 C 73.619 21.759, 72.485 23.351, 73.900 26.718 C 75.571 30.694, 78.736 34.597, 79.594 33.739 C 79.996 33.337, 79.818 31.895, 79.198 30.534 C 78.270 28.499, 78.362 27.897, 79.714 27.140 C 80.920 26.465, 81.820 26.790, 83.093 28.360 C 86.169 32.154, 86.398 29.178, 83.403 24.344 C 80.837 20.205, 78 17.651, 78 19.482 M 175 20 C 175 20.550, 175.927 21, 177.059 21 C 178.191 21, 178.840 20.550, 178.500 20 C 178.160 19.450, 177.234 19, 176.441 19 C 175.648 19, 175 19.450, 175 20 M 182.983 26.182 C 181.317 28.481, 180.113 30.840, 180.307 31.422 C 180.502 32.005, 182.097 33.320, 183.852 34.345 C 186.415 35.842, 187.334 35.968, 188.521 34.982 C 190.599 33.258, 190.362 31.014, 187.813 28.301 C 186.126 26.505, 185.898 25.702, 186.813 24.787 C 188.259 23.341, 188.352 22, 187.006 22 C 186.460 22, 184.649 23.882, 182.983 26.182 M 173.218 24.154 C 173.464 24.895, 174.468 25.655, 175.448 25.846 C 176.588 26.066, 177.069 25.706, 176.782 24.846 C 176.536 24.105, 175.532 23.345, 174.552 23.154 C 173.412 22.934, 172.931 23.294, 173.218 24.154 M 119.342 25.424 C 91.412 30.710, 69.625 47.273, 57.490 72.445 C 51.479 84.913, 49.931 91.363, 49.296 106.581 C 48.883 116.476, 49.146 121.616, 50.375 127.681 C 51.269 132.091, 52 136.060, 52 136.501 C 52 137.972, 33.619 136.105, 23.989 133.655 C 18.757 132.325, 11.382 129.833, 7.600 128.118 C -0.372 124.503, 0 124.587, -0 126.410 C -0 128.160, 7.828 135.720, 12.800 138.771 C 14.835 140.020, 19.600 141.995, 23.389 143.160 C 29.374 145.001, 31.903 145.209, 42.677 144.744 L 55.076 144.208 58.053 150.104 C 59.689 153.347, 61.211 156, 61.434 156 C 61.657 156, 61.466 154.537, 61.011 152.750 C 58.411 142.545, 58.461 142.313, 63.958 138.931 C 66.731 137.225, 69 135.600, 69 135.320 C 69 135.041, 66.692 135.130, 63.871 135.518 L 58.742 136.223 59.430 130.362 C 60.624 120.199, 60.716 120.160, 65.650 127.682 C 68.109 131.432, 71.303 135.738, 72.748 137.250 L 75.374 140 69.687 140 L 64 140 64 151.500 C 64 163.827, 63.733 164.357, 59.154 161.128 C 39.995 147.618, 18.019 149.785, 9.674 166.007 C 7.057 171.094, 6.879 172.165, 7.259 180.500 C 7.592 187.805, 8.313 191.101, 11.085 198 L 14.500 206.500 15.025 192.500 C 15.578 177.764, 16.608 173.753, 21.024 169.140 C 28.016 161.835, 40.837 162.361, 57.248 170.625 L 64 174.025 64 180.513 L 64 187 69 187 L 74 187 74 183.345 C 74 179.750, 74.033 179.720, 76.006 181.506 C 79.025 184.238, 79.261 182.848, 76.474 178.746 C 74.284 175.524, 74 174.047, 74 165.886 C 74 160.816, 74.233 156.900, 74.517 157.184 C 74.802 157.469, 76.651 164.316, 78.627 172.401 L 82.219 187.101 86.842 186.800 L 91.465 186.500 94.982 172 L 98.500 157.500 98.777 172.250 L 99.053 187 105.527 187 L 112 187 112 163.500 L 112 140 103.047 140 L 94.094 140 93.053 143.750 C 92.480 145.813, 92.009 148.063, 92.006 148.750 C 92.003 149.438, 91.639 150, 91.197 150 C 89.532 150, 82 143.766, 82 142.389 C 82 141.598, 80.932 140.544, 79.627 140.048 C 74.674 138.165, 64.003 121.241, 64.001 115.265 C 63.999 110.460, 78.474 90.406, 88.934 80.721 L 95.084 75.028 99.064 77.540 C 111.661 85.493, 131.825 84.126, 143.891 74.502 C 146.306 72.576, 148.723 71, 149.263 71 C 150.790 71, 169 89.918, 169 91.504 C 169 93.792, 155.984 103.633, 147.940 107.427 C 136.916 112.627, 130.344 114, 116.471 114 C 103.106 114, 97.386 112.776, 87.500 107.801 C 82.686 105.378, 81.857 105.177, 83.306 106.781 C 86.272 110.066, 96.354 114.917, 104.596 117.025 C 125.851 122.461, 148.534 116.465, 163.964 101.333 C 172.623 92.840, 170.888 92.272, 179.738 106.500 C 185.287 115.421, 194 133.037, 194 135.336 C 194 137.738, 184.599 140, 174.616 140 L 165 140 165 163.500 L 165 187 172 187 L 179 187 179 178.500 L 179 170 183.869 170 L 188.737 170 187.410 175.708 C 186.681 178.848, 186.241 181.574, 186.434 181.767 C 186.626 181.960, 188.409 179.442, 190.396 176.172 C 194.281 169.776, 200.562 163.497, 204.617 161.955 C 216.316 157.507, 231.129 168.846, 243.213 191.500 C 246.563 197.780, 246.950 198.182, 246.974 195.410 C 247.016 190.412, 243.383 177.702, 239.991 170.981 C 236.149 163.371, 228.566 155.580, 222.305 152.811 C 217.535 150.701, 209.515 149.974, 204.940 151.236 C 202.670 151.863, 202.236 151.542, 201.101 148.402 C 199.697 144.520, 194.996 141.048, 191 140.940 C 188.730 140.879, 188.684 140.799, 190.500 140.065 C 193.283 138.940, 207 138.767, 207 139.857 C 207 140.347, 206.320 142.675, 205.489 145.030 C 203.327 151.159, 204.567 151.266, 207.242 145.182 C 208.611 142.070, 210.140 140.038, 211.124 140.024 C 214.544 139.974, 221.393 143.152, 230.298 148.921 C 243.686 157.593, 248.154 159.137, 254.750 157.370 C 258.271 156.426, 257.462 155.636, 251.039 153.749 C 246.528 152.424, 242.823 150.180, 235.790 144.515 C 225.473 136.205, 221.598 134.024, 215.762 133.241 C 211.944 132.729, 211.830 132.604, 212.439 129.605 C 216.356 110.329, 215.175 93.397, 208.769 77 C 201.636 58.742, 185.863 41.447, 168.307 32.632 C 154.744 25.821, 133.648 22.716, 119.342 25.424 M 65.263 29.107 C 61.662 31.413, 61.766 32.054, 66.680 37.793 C 69.370 40.934, 69.603 41.013, 71.742 39.492 C 76.059 36.422, 76.287 34.517, 72.806 30.585 C 71.060 28.613, 69.377 27.008, 69.066 27.017 C 68.755 27.026, 67.043 27.967, 65.263 29.107 M 192.048 32.430 C 188.955 36.926, 188.275 39, 189.896 39 C 190.779 39, 197 29.948, 197 28.662 C 197 26.786, 194.758 28.492, 192.048 32.430 M 183.570 29.887 C 182.917 30.944, 185.783 33.550, 186.648 32.686 C 187.481 31.852, 186.276 29, 185.090 29 C 184.556 29, 183.871 29.399, 183.570 29.887 M 66.459 31.067 C 66.096 31.653, 66.040 32.373, 66.333 32.667 C 67.050 33.383, 69 32.121, 69 30.941 C 69 29.663, 67.274 29.748, 66.459 31.067 M 203 32.376 C 203 33.304, 203.694 34.329, 204.543 34.655 C 206.970 35.586, 207.205 34.495, 205.006 32.506 C 203.175 30.849, 203 30.837, 203 32.376 M 196.604 35.894 C 192.129 40.476, 192.090 43.677, 196.529 41.989 C 200.435 40.504, 201.500 40.790, 199.655 42.829 C 197.868 44.804, 197.459 47, 198.880 47 C 200.419 47, 207.076 38.165, 206.026 37.516 C 205.476 37.176, 203.446 37.335, 201.513 37.869 C 197.623 38.943, 197.217 38.522, 199.603 35.887 C 203.001 32.132, 200.271 32.138, 196.604 35.894 M 69.459 35.067 C 69.096 35.653, 69.050 36.384, 69.357 36.690 C 70.179 37.513, 73 36.229, 73 35.031 C 73 33.674, 70.303 33.701, 69.459 35.067 M 58.370 39.679 L 59.011 44.359 56.509 42.009 C 55.134 40.716, 53.704 39.963, 53.333 40.334 C 52.366 41.300, 58.370 48.432, 60.503 48.851 C 62.054 49.156, 62.218 48.659, 61.740 45.101 C 61.132 40.565, 61.478 40.218, 64.177 42.661 C 65.187 43.574, 66.318 44.016, 66.691 43.642 C 67.450 42.883, 60.125 35, 58.661 35 C 58.125 35, 58.001 36.992, 58.370 39.679 M 119 36.631 C 114.826 37.428, 104.052 41.107, 103.561 41.902 C 102.940 42.906, 117.469 48.757, 122.579 49.560 C 125.919 50.085, 127.823 49.637, 133.079 47.093 C 136.611 45.384, 138.659 44.551, 137.631 45.243 C 131.031 49.684, 130.878 49.490, 142.470 51.379 C 155.069 53.432, 167.632 57.609, 177.750 63.110 C 181.738 65.278, 185 66.752, 185 66.386 C 185 66.021, 182.591 62.739, 179.646 59.095 C 171.383 48.868, 161.885 42.261, 149.142 37.877 C 141.346 35.194, 139.909 35.556, 145.151 38.881 C 149.452 41.608, 155.138 48, 153.264 48 C 152.785 48, 150.865 46.424, 148.998 44.498 C 147.131 42.571, 143.206 40.098, 140.276 39.002 C 134.920 36.998, 123.650 35.742, 119 36.631 M 164.500 39.663 C 165.050 40.181, 168.126 42.579, 171.336 44.991 C 177.919 49.937, 184.385 57.853, 188.498 66 C 190.025 69.025, 193.534 73.975, 196.295 77 C 199.056 80.025, 202.819 85.637, 204.657 89.472 C 208.388 97.254, 208.939 97.042, 206.138 88.902 C 203.687 81.777, 198.633 71.837, 193.955 64.941 C 188.959 57.575, 175.703 45.217, 168.928 41.610 C 165.942 40.020, 163.950 39.144, 164.500 39.663 M 48.611 46.443 C 45.701 50.259, 44.990 53.083, 47.455 51.037 C 48.627 50.065, 49.570 50.333, 52.299 52.415 C 58.472 57.123, 60.195 55.343, 54.276 50.373 C 51.131 47.733, 50.749 47.007, 51.824 45.712 C 52.566 44.818, 52.706 43.936, 52.160 43.599 C 51.644 43.280, 50.047 44.560, 48.611 46.443 M 96.179 47.445 C 93.615 49.868, 91.808 52.141, 92.164 52.497 C 92.520 52.853, 97.571 52.339, 103.389 51.355 C 109.206 50.371, 113.636 49.249, 113.233 48.863 C 112.830 48.476, 109.877 47.008, 106.671 45.600 L 100.841 43.040 96.179 47.445 M 87.325 48.973 C 74.976 58.965, 69.676 69.236, 69.568 83.386 C 69.504 91.774, 69.434 92.054, 68.327 88.386 C 67.682 86.249, 67.083 82.250, 66.996 79.500 L 66.838 74.500 65.475 77.500 C 63.085 82.762, 61.906 90.490, 62.207 98.921 L 62.500 107.114 67.922 99.525 C 75.681 88.665, 93.479 71.861, 106.501 63.102 C 112.551 59.032, 117.950 55.263, 118.500 54.725 C 119.976 53.281, 92.156 54.625, 90.400 56.083 C 89.538 56.799, 88.994 59.214, 88.985 62.372 C 88.974 66.052, 88.696 67.076, 88 66 C 87.467 65.175, 87.024 62.630, 87.015 60.344 C 87.001 56.553, 86.802 56.232, 84.750 56.692 C 83.019 57.080, 83.250 56.716, 85.750 55.113 C 87.537 53.967, 89 52.607, 89 52.091 C 89 51.576, 90.181 49.750, 91.624 48.034 C 95.686 43.207, 93.994 43.577, 87.325 48.973 M 208.197 49.087 C 205.889 50.784, 204.003 52.472, 204.007 52.837 C 204.010 53.201, 204.889 54.829, 205.960 56.454 C 207.308 58.498, 207.599 59.779, 206.905 60.615 C 206.287 61.359, 206.264 62.045, 206.845 62.404 C 207.768 62.975, 218 54.073, 218 52.699 C 218 51.263, 215.692 52.081, 212.743 54.563 C 209.976 56.891, 209.553 56.982, 208.128 55.557 C 206.703 54.131, 206.900 53.707, 210.280 50.921 C 213.791 48.027, 214.993 46, 213.197 46 C 212.755 46, 210.505 47.389, 208.197 49.087 M 42.174 56.314 C 40.978 57.587, 40 59.141, 40 59.766 C 40 60.800, 48.082 67, 49.430 67 C 50.650 67, 49.920 64.183, 48.566 63.664 C 47.404 63.218, 47.345 62.547, 48.255 60.137 C 49.127 57.826, 49.085 56.807, 48.067 55.580 C 46.263 53.406, 44.726 53.598, 42.174 56.314 M 110.392 63.329 C 103.364 68.459, 97.459 73.122, 97.270 73.690 C 97.081 74.257, 99.305 75.759, 102.213 77.027 C 109.411 80.166, 121.558 80.841, 129.591 78.548 C 136.332 76.624, 146 71.191, 146 69.326 C 146 67.829, 125.735 54, 123.541 54 C 123.337 54, 117.420 58.198, 110.392 63.329 M 130.375 54.798 C 130.699 55.322, 134.010 57.611, 137.732 59.884 C 141.454 62.157, 145.505 64.738, 146.733 65.619 C 148.871 67.153, 149.041 67.090, 150.733 64.117 C 153.131 59.904, 154.370 60.156, 152.327 64.441 L 150.686 67.882 160.794 77.941 C 166.354 83.473, 171.121 88, 171.389 88 C 171.656 88, 173.101 85.748, 174.599 82.995 C 176.097 80.242, 177.500 78.166, 177.716 78.382 C 177.931 78.598, 176.981 81.547, 175.605 84.935 L 173.102 91.095 177.419 97.797 C 179.793 101.484, 183.227 107.157, 185.050 110.404 L 188.365 116.309 189.867 112.404 C 191.856 107.233, 192.064 84.094, 190.170 78.743 C 187.461 71.091, 167.028 60.648, 147 56.681 C 135.289 54.361, 129.715 53.730, 130.375 54.798 M 43.500 58 C 42.684 59.320, 43.880 61.192, 45.069 60.457 C 46.284 59.707, 46.276 57, 45.059 57 C 44.541 57, 43.840 57.450, 43.500 58 M 215.250 59.641 C 212.912 61.050, 211.002 62.720, 211.004 63.352 C 211.009 65.072, 215.019 71.314, 215.688 70.645 C 216.008 70.325, 215.698 68.685, 215 67 C 213.362 63.046, 214.596 61.812, 217 65 C 219.188 67.901, 220.687 67.152, 219 64 C 217.313 60.848, 218.812 60.099, 221 63 C 222.025 64.359, 223.191 65.142, 223.592 64.741 C 224.311 64.023, 221.039 56.963, 220.023 57.039 C 219.735 57.060, 217.588 58.231, 215.250 59.641 M 37.242 66.543 C 35.853 67.516, 35.006 69.138, 35.015 70.807 C 35.034 74.092, 35.807 75.335, 38.817 76.921 C 43.611 79.447, 48.632 73.139, 45.560 68.451 C 44.677 67.103, 43.551 66, 43.059 66 C 42.566 66, 41.561 65.769, 40.824 65.486 C 40.088 65.203, 38.476 65.679, 37.242 66.543 M 37.638 69.500 C 36.438 72.629, 40.254 76.197, 42.991 74.506 C 44.681 73.461, 44.118 70.134, 42.066 69.035 C 39.419 67.619, 38.316 67.735, 37.638 69.500 M 220.750 70.160 C 215.321 72.554, 214.167 75.317, 219 74.350 C 221.400 73.870, 222 74.093, 222 75.465 C 222 76.408, 220.988 78.024, 219.750 79.056 C 217.855 80.638, 217.772 80.939, 219.223 80.967 C 221.691 81.014, 230 76.809, 229.389 75.821 C 229.108 75.365, 227.780 75.268, 226.439 75.605 C 224.423 76.111, 224 75.846, 224 74.077 C 224 72.900, 224.675 71.678, 225.500 71.362 C 227.012 70.782, 227.645 67.972, 226.250 68.033 C 225.838 68.051, 223.363 69.008, 220.750 70.160 M 31.109 80.250 C 28.721 86.632, 28.745 86.952, 31.683 88.087 C 36.113 89.799, 41 90.390, 41 89.214 C 41 88.638, 39.087 87.520, 36.750 86.730 C 33.481 85.624, 32.580 84.855, 32.845 83.396 C 33.314 80.820, 33.354 80.804, 36.426 81.972 C 39.768 83.243, 43 83.303, 43 82.094 C 43 81.274, 34.840 78, 32.797 78 C 32.331 78, 31.572 79.013, 31.109 80.250 M 229 81.960 C 229 83.380, 227.898 84.250, 225 85.118 C 222.726 85.800, 221 86.942, 221 87.765 C 221 88.736, 221.577 88.991, 222.750 88.537 C 226.909 86.928, 230.224 86.744, 231.047 88.076 C 232.583 90.562, 233.149 88.268, 232.027 84.101 C 230.884 79.855, 229 78.522, 229 81.960 M 194.041 91.824 C 194.007 101.188, 193.566 104.440, 191.491 110.622 L 188.982 118.096 192.134 125.798 C 193.867 130.034, 195.612 133.868, 196.010 134.317 C 196.408 134.766, 199.454 134.572, 202.778 133.885 C 209.875 132.419, 210 132.143, 210 117.913 C 210 111.330, 209.451 107.598, 207.850 103.288 C 205.155 96.033, 200.972 88.542, 197.080 84 L 194.081 80.500 194.041 91.824 M 54.972 94 C 53.060 99.847, 52.861 132.453, 54.720 135.500 C 55.774 137.230, 55.943 136.752, 55.970 131.960 C 55.986 128.913, 56.704 123.738, 57.564 120.460 C 58.500 116.894, 58.844 113.295, 58.421 111.500 C 58.032 109.850, 57.428 104.225, 57.079 99 L 56.443 89.500 54.972 94 M 28.655 92.829 C 26.456 95.259, 26.567 97.567, 29 100 C 32.786 103.786, 39 101.642, 39 96.551 C 39 94.135, 36.783 91.551, 35.667 92.667 C 35.310 93.024, 35.514 93.914, 36.121 94.645 C 37.791 96.658, 36.382 99, 33.500 99 C 30.480 99, 29.193 96.522, 30.842 93.881 C 32.958 90.492, 31.433 89.759, 28.655 92.829 M 228.500 92.491 C 227.950 92.675, 226.262 93.098, 224.750 93.432 C 221.370 94.177, 221.115 96, 224.392 96 C 226.079 96, 226.960 96.703, 227.383 98.390 C 228.034 100.985, 230.169 102.256, 232.423 101.391 C 234.406 100.630, 235.049 98.493, 234.348 94.989 C 233.774 92.122, 231.947 91.342, 228.500 92.491 M 229.393 96.582 C 229.727 97.452, 230 98.352, 230 98.582 C 230 98.812, 230.450 99, 231 99 C 231.550 99, 232 98.100, 232 97 C 232 95.830, 231.333 95, 230.393 95 C 229.338 95, 228.995 95.544, 229.393 96.582 M 36.262 115.529 C 30.398 119.636, 33.817 131, 40.916 131 C 46.012 131, 48.890 125.066, 46.532 119.423 C 44.387 114.288, 40.265 112.725, 36.262 115.529 M 218 118 C 212.532 123.468, 219.563 134.092, 225.969 130.041 C 227.101 129.324, 228.017 130.154, 229.969 133.661 C 231.361 136.164, 233.747 138.948, 235.270 139.849 C 237.752 141.317, 238.316 141.332, 240.690 139.994 C 244.258 137.982, 244.995 135.712, 241.821 136.509 C 238.798 137.268, 235.986 134.272, 233.573 127.722 C 229.981 117.971, 222.623 113.377, 218 118 M 120 163.500 L 120 187 126.500 187 C 132.735 187, 133 186.900, 133 184.545 C 133 183.195, 135.468 177.457, 138.485 171.795 L 143.970 161.500 143.985 174.250 L 144 187 150.500 187 L 157 187 157 163.500 L 157 140 150.500 140 C 144.083 140, 144 140.035, 143.971 142.750 C 143.955 144.262, 141.488 150, 138.489 155.500 L 133.037 165.500 133.019 152.750 L 133 140 126.500 140 L 120 140 120 163.500 M 83.992 148.215 C 83.977 150.393, 87.408 163, 88.015 163 C 88.330 163, 89.132 160.412, 89.798 157.250 C 90.887 152.081, 90.832 151.366, 89.255 150.177 C 85.705 147.500, 84 146.864, 83.992 148.215 M 179 155.500 C 179 159.855, 179.099 160, 182.066 160 C 186.337 160, 189 158.335, 189 155.665 C 189 152.403, 187.136 151, 182.800 151 L 179 151 179 155.500" stroke="none" fill="black" fill-rule="evenodd"/>
</svg>