<svg width="262" height="213.00000000000003" xmlns="http://www.w3.org/2000/svg" version="1.1">
 <g>
  <title>Layer 1</title>
  <path stroke="null" id="svg_1" fill-rule="evenodd" fill="black" d="m121.93432,19.43325c-27.93,5.19889 -49.717,21.48895 -61.852,46.24614c-6.011,12.26254 -7.559,18.60625 -8.194,33.57347c-0.413,9.73194 -0.15,14.78724 1.079,20.75229c0.894,4.33733 1.625,8.24092 1.625,8.67466c0,1.44676 -18.381,-0.38947 -28.011,-2.7991c-5.232,-1.30808 -12.607,-3.75902 -16.389,-5.44576c-7.972,-3.55543 -7.6,-3.47281 -7.6,-1.67985c0,1.72116 7.828,9.15658 12.8,12.1573c2.035,1.22842 6.8,3.17087 10.589,4.31667c5.985,1.81066 8.514,2.01523 19.288,1.5579l12.399,-0.52717l2.977,5.79884c1.636,3.18956 3.158,5.79884 3.381,5.79884c0.223,0 0.032,-1.43889 -0.423,-3.19644c-2.6,-10.03683 -2.55,-10.26501 2.947,-13.59128c2.773,-1.67789 5.042,-3.27611 5.042,-3.55149c0,-0.2744 -2.308,-0.18687 -5.129,0.19474l-5.129,0.69338l0.688,-5.76442c1.194,-9.99552 1.286,-10.03388 6.22,-2.63584c2.459,3.6882 5.653,7.92325 7.098,9.41033l2.626,2.70468l-5.687,0l-5.687,0l0,11.31049c0,12.12386 -0.267,12.64513 -4.846,9.46934c-19.159,-13.28737 -41.135,-11.15608 -49.48,4.7986c-2.617,5.00317 -2.795,6.05652 -2.415,14.25417c0.333,7.18462 1.054,10.42631 3.826,17.21162l3.415,8.35993l0.525,-13.76929c0.553,-14.49317 1.583,-18.43807 5.999,-22.97505c6.992,-7.18462 19.813,-6.66729 36.224,1.46053l6.752,3.34397l0,6.38108l0,6.3801l5,0l5,0l0,-3.59477c0,-3.53576 0.033,-3.56526 2.006,-1.8087c3.019,2.68698 3.255,1.31989 0.468,-2.71452c-2.19,-3.1689 -2.474,-4.62157 -2.474,-12.64808c0,-4.98645 0.233,-8.83792 0.517,-8.5586c0.285,0.2803 2.134,7.01447 4.11,14.96624l3.592,14.45776l4.623,-0.29604l4.623,-0.29506l3.517,-14.26106l3.518,-14.26106l0.277,14.50694l0.276,14.50694l6.474,0l6.473,0l0,-23.11274l0,-23.11274l-8.953,0l-8.953,0l-1.041,3.6882c-0.573,2.029 -1.044,4.24193 -1.047,4.91761c-0.003,0.67666 -0.367,1.2294 -0.809,1.2294c-1.665,0 -9.197,-6.13127 -9.197,-7.48558c0,-0.77797 -1.068,-1.8146 -2.373,-2.30242c-4.953,-1.85197 -15.624,-18.49708 -15.626,-24.3746c-0.002,-4.72582 14.473,-24.44935 24.933,-33.97475l6.15,-5.59919l3.98,2.4706c12.597,7.82194 32.761,6.47747 44.827,-2.98794c2.415,-1.89426 4.832,-3.44429 5.372,-3.44429c1.527,0 19.737,18.60625 19.737,20.16612c0,2.2503 -13.016,11.92913 -21.06,15.66061c-11.024,5.11431 -17.596,6.46468 -31.469,6.46468c-13.365,0 -19.085,-1.20383 -28.971,-6.09685c-4.814,-2.38307 -5.643,-2.58076 -4.194,-1.00319c2.966,3.23087 13.048,8.00193 21.29,10.07519c21.255,5.34642 43.938,-0.55077 59.368,-15.43341c8.659,-8.35304 6.924,-8.91168 15.774,5.08185c5.549,8.77399 14.262,26.0997 14.262,28.36081c0,2.36242 -9.401,4.58714 -19.384,4.58714l-9.616,0l0,23.11274l0,23.11274l7,0l7,0l0,-8.35993l0,-8.35993l4.869,0l4.868,0l-1.327,5.61394c-0.729,3.08826 -1.169,5.76933 -0.976,5.95915c0.192,0.18982 1.975,-2.28669 3.962,-5.5028c3.885,-6.2906 10.166,-12.46613 14.221,-13.98272c11.699,-4.3747 26.512,6.77744 38.596,29.05813c3.35,6.17651 3.737,6.57189 3.761,3.84557c0.042,-4.91564 -3.591,-17.41619 -6.983,-24.02644c-3.842,-7.4846 -11.425,-15.14721 -17.686,-17.87058c-4.77,-2.07523 -12.79,-2.79025 -17.365,-1.54905c-2.27,0.61667 -2.704,0.30096 -3.839,-2.7873c-1.404,-3.81803 -6.105,-7.23281 -10.101,-7.33903c-2.27,-0.05999 -2.316,-0.13868 -0.5,-0.86058c2.783,-1.10646 16.5,-1.27661 16.5,-0.20457c0,0.48193 -0.68,2.77156 -1.511,5.08775c-2.162,6.028 -0.922,6.13324 1.753,0.1495c1.369,-3.06072 2.898,-5.05923 3.882,-5.073c3.42,-0.04918 10.269,3.07645 19.174,8.75039c13.388,8.52909 17.856,10.04765 24.452,8.30977c3.521,-0.92844 2.712,-1.70543 -3.711,-3.56133c-4.511,-1.30317 -8.216,-3.51019 -15.249,-9.08183c-10.317,-8.17306 -14.192,-10.31812 -20.028,-11.08822c-3.818,-0.50356 -3.932,-0.6265 -3.323,-3.57608c3.917,-18.95835 2.736,-35.61133 -3.67,-51.73812c-7.133,-17.95713 -22.906,-34.96712 -40.462,-43.63686c-13.563,-6.69876 -34.659,-9.75259 -48.965,-7.08922m-18.1429,14.96267c0.20584,0.72584 2.8529,0.46189 2.3619,1.24379c-0.621,0.98746 13.908,6.74204 19.018,7.5318c3.34,0.51635 5.244,0.07573 10.5,-2.42635c3.532,-1.68084 5.58,-2.50011 4.552,-1.81951c-6.6,4.36782 -6.753,4.17701 4.839,6.03489c12.599,2.01917 25.162,6.12734 35.28,11.53769c3.988,2.13227 7.25,3.58198 7.25,3.22201c0,-0.35899 -2.409,-3.5869 -5.354,-7.17085c-8.263,-10.05847 -17.761,-16.55659 -30.504,-20.86835c-7.796,-2.63879 -9.233,-2.28275 -3.991,0.98746c4.301,2.68206 9.987,8.96873 8.113,8.96873c-0.479,0 -2.399,-1.55003 -4.266,-3.44429c-1.867,-1.89525 -1.26074,-1.36389 -8.722,-5.40543c-7.46126,-4.04154 -16.626,-3.20628 -21.276,-2.33193m45.5,2.98204c0.55,0.50946 3.626,2.86795 6.836,5.2402c6.583,4.8645 13.049,12.65005 17.162,20.66279c1.527,2.97515 5.036,7.84358 7.797,10.81873c2.761,2.97515 6.524,8.49467 8.362,12.26647c3.731,7.65376 4.282,7.44525 1.481,-0.56061c-2.451,-7.00759 -7.505,-16.78379 -12.183,-23.56615c-4.996,-7.24462 -18.252,-19.39897 -25.027,-22.94653c-2.986,-1.5638 -4.978,-2.42536 -4.428,-1.91492m-74.15026,14.29242c-0.15579,-0.89091 1.45826,-2.02004 1.81426,-1.66991c0.356,0.35013 5.407,-0.1554 11.225,-1.12318c5.817,-0.96778 10.247,-2.0713 9.844,-2.45093c-0.403,-0.38062 -3.356,-1.82443 -6.562,-3.20923l-5.83,-2.51781l-4.662,4.33241m-8.854,1.50282c-12.349,9.82734 -17.649,19.92909 -17.757,33.84591c-0.064,8.24977 -0.134,8.52516 -1.241,4.91761c-0.645,-2.10178 -1.244,-6.03489 -1.331,-8.73957l-0.158,-4.91761l-1.363,2.95056c-2.39,5.17529 -3.569,12.77594 -3.268,21.068l0.293,8.05799l5.422,-7.46394c7.759,-10.68104 25.557,-27.20813 38.579,-35.82279c6.05,-4.00293 11.449,-7.70982 11.999,-8.23896c1.476,-1.4202 -26.344,-0.09835 -28.1,1.33562c-0.862,0.7042 -1.406,3.0794 -1.415,6.18536c-0.011,3.61936 -0.289,4.62648 -0.985,3.56821c-0.533,-0.8114 -0.976,-3.31447 -0.985,-5.5628c-0.014,-3.72853 -0.213,-4.04424 -2.265,-3.59182c-1.731,0.38161 -1.5,0.0236 1,-1.55298c1.787,-1.12712 3.25,-2.4647 3.25,-2.9722c0,-0.50651 1.181,-2.30242 2.624,-3.99014c4.062,-4.74746 2.37,-4.38355 -4.299,0.92353m7.31921,25.47521c-7.06969,4.56017 2.81479,-1.72416 2.62579,-1.16552c-0.189,0.55766 2.035,2.03491 4.943,3.28201c7.198,3.08727 19.345,3.75115 27.378,1.49594c6.741,-1.89229 16.409,-7.23576 16.409,-9.07003c0,-1.47233 -20.265,-15.07344 -22.459,-15.07344c-0.204,0 -6.121,4.12882 -13.149,9.17527m19.983,-8.39042c0.324,0.51537 3.635,2.76664 7.357,5.00219c3.722,2.23554 7.773,4.77401 9.001,5.64049c2.138,1.50872 2.308,1.44676 4,-1.47725c2.398,-4.14357 3.637,-3.89573 1.594,0.31866l-1.641,3.3843l10.108,9.89324c5.56,5.44084 10.327,9.89324 10.595,9.89324c0.267,0 1.712,-2.21489 3.21,-4.92252c1.498,-2.70763 2.901,-4.74942 3.117,-4.53698c0.215,0.21244 -0.735,3.11284 -2.111,6.44501l-2.503,6.05849l4.317,6.59156c2.374,3.62624 5.808,9.20576 7.631,12.39925l3.315,5.80769l1.502,-3.84065c1.989,-5.08579 2.197,-27.84348 0.303,-33.1063c-2.709,-7.5259 -23.142,-17.79681 -43.17,-21.69844c-11.711,-2.28177 -17.285,-2.90237 -16.625,-1.85197m63.666,36.41585c-0.034,9.20969 -0.475,12.4081 -2.55,18.48823l-2.509,7.35084l3.152,7.57508c1.733,4.1662 3.478,7.93701 3.876,8.37862c0.398,0.4416 3.444,0.2508 6.768,-0.42488c7.097,-1.44184 7.222,-1.71329 7.222,-15.7088c0,-6.47452 -0.549,-10.14502 -2.15,-14.384c-2.695,-7.13545 -6.878,-14.503 -10.77,-18.97015l-2.999,-3.44232l-0.04,11.13739m-139.069,2.14014c-1.912,5.75065 -2.111,37.81933 -0.252,40.81612c1.054,1.70149 1.223,1.23137 1.25,-3.48166c0.016,-2.99679 0.734,-8.08651 1.594,-11.31049c0.936,-3.50724 1.28,-7.04693 0.857,-8.81235c-0.389,-1.62281 -0.993,-7.15512 -1.342,-12.29401l-0.636,-9.34345l-1.471,4.42584m-21.22198,24.99651c-0.45728,3.90524 0.06698,11.39377 7.16598,11.39377c5.096,0 7.974,-5.83621 5.616,-11.38622c-2.145,-5.05038 -6.267,-6.58762 -10.27,-3.82983m181.738,2.43028c-5.468,5.37789 1.563,15.82682 7.969,11.84258c1.132,-0.70518 2.048,0.11114 4,3.56035c1.392,2.46175 3.778,5.19988 5.301,6.08603c2.482,1.44381 3.046,1.45856 5.42,0.14261c3.568,-1.97884 4.305,-4.21144 1.131,-3.42757c-3.023,0.74649 -5.835,-2.20014 -8.248,-8.6422c-3.592,-9.59031 -10.95,-14.10861 -15.573,-9.56179m-98,44.75021l0,23.11274l6.5,0c6.235,0 6.5,-0.09835 6.5,-2.41454c0,-1.32775 2.468,-6.9712 5.485,-12.53989l5.485,-10.12535l0.015,12.53989l0.015,12.53989l6.5,0l6.5,0l0,-23.11274l0,-23.11274l-6.5,0c-6.417,0 -6.5,0.03442 -6.529,2.70468c-0.016,1.48708 -2.483,7.13053 -5.482,12.53989l-5.452,9.83521l-0.018,-12.53989l-0.019,-12.53989l-6.5,0l-6.5,0l0,23.11274m-36.008,-15.03312c-0.015,2.14211 3.416,14.54136 4.023,14.54136c0.315,0 1.117,-2.54535 1.783,-5.65525c1.089,-5.08382 1.034,-5.78704 -0.543,-6.95644c-3.55,-2.63289 -5.255,-3.25841 -5.263,-1.92967m95.008,7.16495c0,4.28323 0.099,4.42584 3.066,4.42584c4.271,0 6.934,-1.63756 6.934,-4.26356c0,-3.20825 -1.864,-4.58813 -6.2,-4.58813l-3.8,0l0,4.42584"/>
 </g>

</svg>