<svg width="40" height="40" viewBox="0 0 40 40" fill="none" xmlns="http://www.w3.org/2000/svg">
<path d="M20.0001 3.33334C29.2051 3.33334 36.6667 10.795 36.6667 20C36.6667 29.205 29.2051 36.6667 20.0001 36.6667C17.1633 36.6707 14.3729 35.9477 11.8951 34.5667L11.3867 34.27L6.33339 35.7567C6.05839 35.8377 5.76726 35.8472 5.48758 35.7842C5.2079 35.7211 4.94896 35.5877 4.73528 35.3966C4.52161 35.2055 4.36029 34.9629 4.26663 34.692C4.17296 34.421 4.15004 34.1306 4.20005 33.8483L4.24339 33.6667L5.73005 28.6133C4.15848 26.0154 3.32952 23.0363 3.33339 20C3.33339 10.795 10.7951 3.33334 20.0001 3.33334ZM20.0001 6.66668C17.6128 6.66624 15.2691 7.30677 13.2139 8.52137C11.1587 9.73597 9.46731 11.4801 8.31632 13.5716C7.16534 15.6631 6.59699 18.0252 6.67065 20.4114C6.74431 22.7975 7.45726 25.1201 8.73505 27.1367C9.06505 27.6567 9.20672 28.2967 9.09505 28.9317L9.03005 29.2033L8.29505 31.705L10.7967 30.97C11.5184 30.7567 12.2684 30.8867 12.8634 31.265C14.6106 32.3713 16.5912 33.0561 18.6486 33.2651C20.7061 33.4741 22.7839 33.2017 24.7179 32.4693C26.6519 31.737 28.389 30.5648 29.792 29.0455C31.195 27.5261 32.2253 25.7013 32.8015 23.7152C33.3777 21.7291 33.4841 19.6361 33.1121 17.6019C32.7402 15.5676 31.9001 13.6477 30.6584 11.994C29.4166 10.3403 27.8072 8.99806 25.9574 8.07348C24.1076 7.14889 22.0681 6.66727 20.0001 6.66668ZM15.1701 11.9733C15.3548 11.8943 15.5567 11.8642 15.7565 11.8861C15.9562 11.908 16.1469 11.9811 16.3101 12.0983C17.1501 12.7117 17.8167 13.535 18.3901 14.3383L18.9351 15.1283L19.1901 15.5033C19.3377 15.7183 19.4103 15.976 19.3964 16.2364C19.3825 16.4968 19.283 16.7453 19.1134 16.9433L18.9884 17.07L17.4484 18.2133C17.3751 18.2677 17.3236 18.3464 17.3031 18.4353C17.2827 18.5242 17.2946 18.6174 17.3367 18.6983C17.6867 19.3317 18.3051 20.2767 19.0151 20.9867C19.7267 21.6967 20.7151 22.3567 21.3917 22.745C21.5384 22.8283 21.7151 22.8017 21.8351 22.6933L21.8984 22.6183L22.9001 21.0933C23.0837 20.848 23.3553 20.6835 23.6577 20.6344C23.9602 20.5853 24.2699 20.6554 24.5217 20.83L25.4267 21.4617C26.3267 22.1033 27.1917 22.7933 27.8767 23.6683C28.0035 23.8328 28.084 24.0281 28.1101 24.234C28.1362 24.44 28.1068 24.6492 28.0251 24.84C27.3651 26.38 25.6934 27.6917 23.9567 27.6283L23.6917 27.6117L23.3734 27.5817L23.1934 27.5583L22.7967 27.4917C21.2567 27.2017 18.7884 26.3283 16.2301 23.7717C13.6734 21.2133 12.8001 18.745 12.5101 17.205L12.4434 16.8083L12.4017 16.4617L12.3801 16.17L12.3734 16.045C12.3101 14.305 13.6284 12.6333 15.1701 11.9733Z" fill="#404040"/>
</svg>
