<svg width="40" height="40" viewBox="0 0 40 40" fill="none" xmlns="http://www.w3.org/2000/svg">
<path fill-rule="evenodd" clip-rule="evenodd" d="M36.4 10.0933C36.4727 9.65219 36.4258 9.19963 36.2641 8.78279C36.1025 8.36596 35.832 8.0001 35.4809 7.72335C35.1297 7.4466 34.7108 7.26907 34.2677 7.20927C33.8247 7.14946 33.3737 7.20957 32.9617 7.38333L4.46171 19.3833C2.47505 20.22 2.37338 23.0933 4.46171 23.96C6.52985 24.8217 8.62783 25.61 10.7517 26.3233C12.6984 26.9667 14.8217 27.5617 16.5234 27.73C16.9884 28.2867 17.5734 28.8233 18.17 29.3133C19.0817 30.0633 20.1784 30.835 21.3117 31.575C23.5817 33.0583 26.1 34.4767 27.7967 35.4C29.825 36.5 32.2534 35.2333 32.6167 33.0217L36.4 10.0933ZM7.65671 21.655L32.8634 11.0417L29.3334 32.4417C27.6684 31.5367 25.27 30.1817 23.1334 28.785C22.1486 28.1527 21.1979 27.469 20.285 26.7367C20.0411 26.5373 19.8043 26.3294 19.575 26.1133L26.1767 19.5133C26.4894 19.2008 26.6652 18.7769 26.6654 18.3348C26.6655 17.8926 26.4901 17.4686 26.1775 17.1558C25.865 16.8431 25.4411 16.6673 24.999 16.6672C24.5568 16.667 24.1328 16.8425 23.82 17.155L16.5917 24.3833C15.3684 24.2267 13.665 23.7733 11.795 23.1567C10.4029 22.6928 9.02351 22.1915 7.65838 21.6533L7.65671 21.655Z" fill="#404040"/>
</svg>
